<?xml version="1.0" encoding="UTF-8"?>
<!-- Generator: Adobe Illustrator 28.3.0, SVG Export Plug-In . SVG Version: 6.00 Build 0)  -->
<svg xmlns="http://www.w3.org/2000/svg" xmlns:xlink="http://www.w3.org/1999/xlink" version="1.1" id="Layer_1" x="0px" y="0px" viewBox="0 0 976.2 316.7" style="enable-background:new 0 0 976.2 316.7;" xml:space="preserve">
<style type="text/css">
	.st0{fill:#123041;}
	.st1{enable-background:new    ;}
</style>
<g id="Calque_1">
	<g>
		<path class="st0" d="M151,82.8c3.3,1.9,3.3,6.7,0,8.6l-39.5,22.8c-4.7,2.7-7.6,7.7-7.6,13.1l0,8.9l-0.3,157    c-48.9-25.1-82.4-76.1-82.4-134.9c0-47.7,22-90.2,56.4-117.9L151,82.8z M172.7,6.9c-30.3,0-58.5,8.9-82.2,24.2L234,114.3    c4.7,2.7,7.6,7.7,7.6,13.1V173c0,3.8,4.1,6.2,7.5,4.3l73.4-42.4C311.1,62.4,248.4,6.9,172.7,6.9 M324,150.4l-82.5,47.6l-61.2,35.4    c-4.7,2.7-10.4,2.7-15.1,0l-39.6-22.9c-3.3-1.9-7.5,0.5-7.5,4.3l-0.1,84.8c17,6.6,35.5,10.2,54.8,10.2    c83.7,0,151.5-67.8,151.5-151.5C324.2,155.7,324.1,153.1,324,150.4z M159.3,213.6c4.2,2.4,7.7,0.4,7.7-4.4v-39.8    c0-4.2-3-9.4-6.7-11.6l-34.5-19.9c-4.2-2.4-7.7-0.4-7.7,4.4v39.8c0,4.2,3,9.4,6.7,11.6L159.3,213.6 M166,147.9    c3.7,2.1,9.7,2.1,13.3,0l37.5-21.6c2.6-1.5,2.6-3.9,0-5.4l-37.5-21.6c-3.7-2.1-9.7-2.1-13.3,0l-37.5,21.6c-2.6,1.5-2.6,3.9,0,5.4    L166,147.9z M186.1,213.6l34.5-19.9c3.7-2.1,6.7-7.3,6.7-11.6v-40c0-4.7-3.4-6.7-7.5-4.3l-34.7,20c-3.7,2.1-6.7,7.3-6.7,11.6v39.8    C178.4,214,181.9,216,186.1,213.6"></path>
		<g>
			<path class="st0" d="M362.9,148.1c0,35.6,30.4,62.8,65.2,62.8H586l-66-72.2h-69.5l13.2,19.3h47.4l30.4,33.4h-113     c-24.3,0-44.9-19.3-44.9-43.1v-0.2c0-23.4,19.8-42.9,44.9-42.9H490c-7.1-7.9-13.2-14.7-18.1-19.7h-43.8     C393.8,85.5,362.9,112.9,362.9,148.1"></path>
			<path class="st0" d="M498.9,85.7c4.8,5.2,10.7,12,17.9,19.7h138.9c25.4,0,45.2,19.5,45.2,42.9c0,24.9-20.9,43.1-45.2,43.1h-60.1     l17.9,19.5h42.2c35,0,65.8-27.5,65.8-62.6c0-34.3-30-62.4-65.8-62.4v-0.2L498.9,85.7z"></path>
			<path class="st0" d="M749.6,210.5h167.5c20.9,0,37.9-16.4,37.9-36.3c0-20-18.6-36.1-37.7-36.1H770c-9.7,0-17.3-7.5-17.3-16.6     c0-9.5,8-16.1,16.5-16.1c0.4,0,0.7,0,1.1,0H955l-17.3-19.7H770.1c-19.8,0-37.7,15.7-37.7,35.8v0.7c0,20.6,18.8,35.8,37.4,35.8     h147.6c7.2,0,13.9,4.3,16.2,11.1c3.8,11.3-5,22-16.5,22H732.2L749.6,210.5z"></path>
		</g>
		<g class="st1">
			<path class="st0" d="M408,242.2h-24.7V238H408V242.2z M397.8,257.7h-4.2v-12h4.2V257.7z"></path>
			<path class="st0" d="M441.2,257.7h-9L412,247.1v-1.3h19.2c0.3,0,0.5-0.1,0.7-0.3c0.2-0.2,0.3-0.4,0.3-0.7v-1.6     c0-0.3-0.1-0.5-0.3-0.7c-0.2-0.2-0.4-0.3-0.7-0.3H412V238h19.2c0.7,0,1.4,0.1,2,0.4c0.6,0.3,1.2,0.6,1.6,1.1     c0.5,0.5,0.8,1,1.1,1.6c0.3,0.6,0.4,1.3,0.4,2v1.6c0,0.7-0.1,1.4-0.4,2c-0.3,0.6-0.6,1.2-1.1,1.7s-1,0.8-1.6,1.1     c-0.6,0.3-1.3,0.4-2,0.4h-5L441.2,257.7z"></path>
			<path class="st0" d="M468.8,257.7h-4.2V250h-16.3v7.8h-4.2v-14.5c0-0.7,0.1-1.4,0.4-2c0.3-0.6,0.6-1.2,1.1-1.7     c0.5-0.5,1-0.9,1.7-1.1c0.6-0.3,1.3-0.4,2-0.4h14.3c0.7,0,1.4,0.1,2,0.4c0.6,0.3,1.2,0.7,1.7,1.1c0.5,0.5,0.9,1,1.1,1.7     c0.3,0.6,0.4,1.3,0.4,2V257.7z M464.6,245.8v-2.6c0-0.3-0.1-0.5-0.3-0.8c-0.2-0.2-0.5-0.3-0.8-0.3h-14.3c-0.3,0-0.5,0.1-0.7,0.3     c-0.2,0.2-0.3,0.5-0.3,0.8v2.6H464.6z"></path>
			<path class="st0" d="M497.4,257.7h-4.2v-14.4c0-0.2,0-0.3-0.1-0.4c-0.1-0.1-0.1-0.3-0.2-0.4s-0.2-0.2-0.4-0.2     c-0.1-0.1-0.3-0.1-0.4-0.1h-19.4V238h19.4c0.7,0,1.4,0.1,2.1,0.4c0.6,0.3,1.2,0.7,1.7,1.1c0.5,0.5,0.9,1.1,1.1,1.7     c0.3,0.6,0.4,1.3,0.4,2.1V257.7z M476.9,257.7h-4.2v-12h4.2V257.7z"></path>
			<path class="st0" d="M525.1,252.6c0,0.7-0.1,1.4-0.4,2c-0.3,0.6-0.6,1.2-1.1,1.6c-0.5,0.5-1,0.8-1.6,1.1c-0.6,0.3-1.3,0.4-2,0.4     h-18.5v-4.2h18.5c0.3,0,0.5-0.1,0.7-0.3c0.2-0.2,0.3-0.4,0.3-0.7V251c0-0.3-0.1-0.5-0.3-0.7c-0.2-0.2-0.4-0.3-0.7-0.3h-13.3     c-0.7,0-1.4-0.1-2-0.4c-0.6-0.3-1.2-0.6-1.7-1.1c-0.5-0.5-0.8-1-1.1-1.7c-0.3-0.6-0.4-1.3-0.4-2v-1.6c0-0.7,0.1-1.4,0.4-2     c0.3-0.6,0.6-1.2,1.1-1.6c0.5-0.5,1-0.8,1.7-1.1c0.6-0.3,1.3-0.4,2-0.4h18.5v4.2h-18.5c-0.3,0-0.5,0.1-0.7,0.3     c-0.2,0.2-0.3,0.4-0.3,0.7v1.6c0,0.3,0.1,0.5,0.3,0.7c0.2,0.2,0.4,0.3,0.7,0.3h13.3c0.7,0,1.4,0.1,2,0.4c0.6,0.3,1.2,0.6,1.6,1.1     c0.5,0.5,0.8,1,1.1,1.6c0.3,0.6,0.4,1.3,0.4,2V252.6z"></path>
			<path class="st0" d="M553.4,244.8c0,0.7-0.1,1.4-0.4,2c-0.3,0.6-0.6,1.2-1.1,1.7c-0.5,0.5-1,0.8-1.6,1.1c-0.6,0.3-1.3,0.4-2,0.4     h-15v7.8H529v-12h19.2c0.3,0,0.5-0.1,0.7-0.3c0.2-0.2,0.3-0.4,0.3-0.7v-1.6c0-0.3-0.1-0.5-0.3-0.7c-0.2-0.2-0.4-0.3-0.7-0.3H529     V238h19.2c0.7,0,1.4,0.1,2,0.4c0.6,0.3,1.2,0.6,1.6,1.1c0.5,0.5,0.8,1,1.1,1.6c0.3,0.6,0.4,1.3,0.4,2V244.8z"></path>
			<path class="st0" d="M582.1,252.5c0,0.7-0.1,1.4-0.4,2c-0.3,0.6-0.7,1.2-1.1,1.7c-0.5,0.5-1,0.8-1.7,1.1c-0.6,0.3-1.3,0.4-2,0.4     h-14.3c-0.7,0-1.4-0.1-2-0.4c-0.6-0.3-1.2-0.6-1.7-1.1c-0.5-0.5-0.8-1-1.1-1.7s-0.4-1.3-0.4-2v-9.3c0-0.7,0.1-1.4,0.4-2     c0.3-0.6,0.6-1.2,1.1-1.7c0.5-0.5,1-0.9,1.7-1.1c0.6-0.3,1.3-0.4,2-0.4h14.3c0.7,0,1.4,0.1,2,0.4c0.6,0.3,1.2,0.7,1.7,1.1     c0.5,0.5,0.9,1,1.1,1.7c0.3,0.6,0.4,1.3,0.4,2V252.5z M577.9,243.2c0-0.3-0.1-0.5-0.3-0.8c-0.2-0.2-0.5-0.3-0.8-0.3h-14.3     c-0.3,0-0.5,0.1-0.7,0.3c-0.2,0.2-0.3,0.5-0.3,0.8v9.3c0,0.3,0.1,0.5,0.3,0.7c0.2,0.2,0.4,0.3,0.7,0.3h14.3     c0.3,0,0.5-0.1,0.8-0.3c0.2-0.2,0.3-0.4,0.3-0.7V243.2z"></path>
			<path class="st0" d="M615.2,257.7h-9L586,247.1v-1.3h19.2c0.3,0,0.5-0.1,0.7-0.3s0.3-0.4,0.3-0.7v-1.6c0-0.3-0.1-0.5-0.3-0.7     s-0.4-0.3-0.7-0.3H586V238h19.2c0.7,0,1.4,0.1,2,0.4c0.6,0.3,1.2,0.6,1.6,1.1c0.5,0.5,0.8,1,1.1,1.6c0.3,0.6,0.4,1.3,0.4,2v1.6     c0,0.7-0.1,1.4-0.4,2c-0.3,0.6-0.6,1.2-1.1,1.7c-0.5,0.5-1,0.8-1.6,1.1c-0.6,0.3-1.3,0.4-2,0.4h-5L615.2,257.7z"></path>
			<path class="st0" d="M640.2,242.2h-24.7V238h24.7V242.2z M629.9,257.7h-4.2v-12h4.2V257.7z"></path>
			<path class="st0" d="M667.8,252.6c0,0.7-0.1,1.4-0.4,2c-0.3,0.6-0.6,1.2-1.1,1.6c-0.5,0.5-1,0.8-1.6,1.1c-0.6,0.3-1.3,0.4-2,0.4     h-18.5v-4.2h18.5c0.3,0,0.5-0.1,0.7-0.3c0.2-0.2,0.3-0.4,0.3-0.7V251c0-0.3-0.1-0.5-0.3-0.7c-0.2-0.2-0.4-0.3-0.7-0.3h-13.3     c-0.7,0-1.4-0.1-2-0.4c-0.6-0.3-1.2-0.6-1.7-1.1c-0.5-0.5-0.8-1-1.1-1.7c-0.3-0.6-0.4-1.3-0.4-2v-1.6c0-0.7,0.1-1.4,0.4-2     c0.3-0.6,0.6-1.2,1.1-1.6c0.5-0.5,1-0.8,1.7-1.1c0.6-0.3,1.3-0.4,2-0.4h18.5v4.2h-18.5c-0.3,0-0.5,0.1-0.7,0.3s-0.3,0.4-0.3,0.7     v1.6c0,0.3,0.1,0.5,0.3,0.7s0.4,0.3,0.7,0.3h13.3c0.7,0,1.4,0.1,2,0.4c0.6,0.3,1.2,0.6,1.6,1.1c0.5,0.5,0.8,1,1.1,1.6     c0.3,0.6,0.4,1.3,0.4,2V252.6z"></path>
			<path class="st0" d="M709.6,257.7h-20.3c-0.7,0-1.4-0.1-2.1-0.4c-0.6-0.3-1.2-0.7-1.7-1.1c-0.5-0.5-0.9-1-1.1-1.7     c-0.3-0.6-0.4-1.3-0.4-2.1v-1.3c0-0.6,0.1-1.2,0.3-1.7c0.2-0.6,0.5-1.1,0.8-1.5c0.3-0.4,0.8-0.8,1.2-1.2c0.5-0.3,1-0.6,1.6-0.7     c-0.2-0.4-0.4-0.8-0.6-1.2c-0.1-0.4-0.2-0.9-0.2-1.4c0-0.7,0.1-1.4,0.4-2.1c0.3-0.6,0.7-1.2,1.1-1.7c0.5-0.5,1-0.9,1.7-1.2     c0.6-0.3,1.3-0.4,2.1-0.4h7.2c0.7,0,1.4,0.1,2.1,0.4c0.6,0.3,1.2,0.7,1.7,1.1c0.5,0.5,0.9,1.1,1.1,1.7c0.3,0.6,0.4,1.3,0.4,2.1     v2.1h-4.2v-2.1c0-0.2,0-0.3-0.1-0.4c-0.1-0.1-0.1-0.3-0.2-0.4s-0.2-0.2-0.4-0.2s-0.3-0.1-0.4-0.1h-7.2c-0.3,0-0.6,0.1-0.8,0.3     c-0.2,0.2-0.3,0.5-0.3,0.8c0,0.3,0.1,0.5,0.3,0.7c0.2,0.2,0.4,0.4,0.6,0.5l11.3,8.5c0.5-0.3,0.9-0.7,1.1-1.2     c0.3-0.5,0.4-1,0.4-1.6v-3.5h4.2v3.5c0,1-0.2,2-0.6,2.9c-0.4,0.9-1,1.7-1.7,2.4L709.6,257.7z M697.2,253.6l-4.7-3.6h-3.1     c-0.3,0-0.6,0.1-0.8,0.3c-0.2,0.2-0.3,0.5-0.3,0.8v1.3c0,0.2,0,0.3,0.1,0.4c0.1,0.1,0.1,0.3,0.2,0.4s0.2,0.2,0.4,0.3     c0.1,0.1,0.3,0.1,0.4,0.1H697.2z"></path>
			<path class="st0" d="M749.6,257.7H731c-0.7,0-1.4-0.1-2-0.4c-0.6-0.3-1.2-0.6-1.7-1.1c-0.5-0.5-0.8-1-1.1-1.6     c-0.3-0.6-0.4-1.3-0.4-2V238h4.2v14.6c0,0.3,0.1,0.5,0.3,0.7c0.2,0.2,0.4,0.3,0.7,0.3h18.6V257.7z"></path>
			<path class="st0" d="M778.3,252.5c0,0.7-0.1,1.4-0.4,2c-0.3,0.6-0.7,1.2-1.1,1.7c-0.5,0.5-1,0.8-1.7,1.1c-0.6,0.3-1.3,0.4-2,0.4     h-14.3c-0.7,0-1.4-0.1-2-0.4s-1.2-0.6-1.7-1.1c-0.5-0.5-0.8-1-1.1-1.7s-0.4-1.3-0.4-2v-9.3c0-0.7,0.1-1.4,0.4-2     c0.3-0.6,0.6-1.2,1.1-1.7c0.5-0.5,1-0.9,1.7-1.1c0.6-0.3,1.3-0.4,2-0.4H773c0.7,0,1.4,0.1,2,0.4c0.6,0.3,1.2,0.7,1.7,1.1     c0.5,0.5,0.9,1,1.1,1.7c0.3,0.6,0.4,1.3,0.4,2V252.5z M774.1,243.2c0-0.3-0.1-0.5-0.3-0.8c-0.2-0.2-0.5-0.3-0.8-0.3h-14.3     c-0.3,0-0.5,0.1-0.7,0.3c-0.2,0.2-0.3,0.5-0.3,0.8v9.3c0,0.3,0.1,0.5,0.3,0.7c0.2,0.2,0.4,0.3,0.7,0.3H773c0.3,0,0.5-0.1,0.8-0.3     c0.2-0.2,0.3-0.4,0.3-0.7V243.2z"></path>
			<path class="st0" d="M806,257.7h-18.6c-0.7,0-1.4-0.1-2-0.4c-0.6-0.3-1.2-0.6-1.7-1.1c-0.5-0.5-0.8-1-1.1-1.6     c-0.3-0.6-0.4-1.3-0.4-2v-9.4c0-0.7,0.1-1.4,0.4-2c0.3-0.6,0.6-1.2,1.1-1.6c0.5-0.5,1-0.8,1.7-1.1c0.6-0.3,1.3-0.4,2-0.4H806v4.2     h-18.6c-0.3,0-0.5,0.1-0.7,0.3c-0.2,0.2-0.3,0.4-0.3,0.7v9.4c0,0.3,0.1,0.5,0.3,0.7c0.2,0.2,0.4,0.3,0.7,0.3h14.4v-7.8h4.2V257.7     z"></path>
			<path class="st0" d="M814.1,257.7h-4.2V238h4.2V257.7z"></path>
			<path class="st0" d="M841.7,252.6c0,0.7-0.1,1.4-0.4,2c-0.3,0.6-0.6,1.2-1.1,1.6c-0.5,0.5-1,0.8-1.6,1.1c-0.6,0.3-1.3,0.4-2,0.4     h-18.5v-4.2h18.5c0.3,0,0.5-0.1,0.7-0.3c0.2-0.2,0.3-0.4,0.3-0.7V251c0-0.3-0.1-0.5-0.3-0.7c-0.2-0.2-0.4-0.3-0.7-0.3h-13.3     c-0.7,0-1.4-0.1-2-0.4c-0.6-0.3-1.2-0.6-1.7-1.1c-0.5-0.5-0.8-1-1.1-1.7c-0.3-0.6-0.4-1.3-0.4-2v-1.6c0-0.7,0.1-1.4,0.4-2     c0.3-0.6,0.6-1.2,1.1-1.6c0.5-0.5,1-0.8,1.7-1.1c0.6-0.3,1.3-0.4,2-0.4h18.5v4.2h-18.5c-0.3,0-0.5,0.1-0.7,0.3     c-0.2,0.2-0.3,0.4-0.3,0.7v1.6c0,0.3,0.1,0.5,0.3,0.7c0.2,0.2,0.4,0.3,0.7,0.3h13.3c0.7,0,1.4,0.1,2,0.4c0.6,0.3,1.2,0.6,1.6,1.1     c0.5,0.5,0.8,1,1.1,1.6c0.3,0.6,0.4,1.3,0.4,2V252.6z"></path>
			<path class="st0" d="M870.4,242.2h-24.7V238h24.7V242.2z M860.1,257.7h-4.2v-12h4.2V257.7z"></path>
			<path class="st0" d="M878.5,257.7h-4.2V238h4.2V257.7z"></path>
			<path class="st0" d="M906.2,257.7h-18.6c-0.7,0-1.4-0.1-2-0.4c-0.6-0.3-1.2-0.6-1.7-1.1c-0.5-0.5-0.8-1-1.1-1.6     c-0.3-0.6-0.4-1.3-0.4-2v-9.4c0-0.7,0.1-1.4,0.4-2c0.3-0.6,0.6-1.2,1.1-1.6c0.5-0.5,1-0.8,1.7-1.1c0.6-0.3,1.3-0.4,2-0.4h18.6     v4.2h-18.6c-0.3,0-0.5,0.1-0.7,0.3c-0.2,0.2-0.3,0.4-0.3,0.7v9.4c0,0.3,0.1,0.5,0.3,0.7c0.2,0.2,0.4,0.3,0.7,0.3h18.6V257.7z"></path>
			<path class="st0" d="M933.9,252.6c0,0.7-0.1,1.4-0.4,2c-0.3,0.6-0.6,1.2-1.1,1.6c-0.5,0.5-1,0.8-1.6,1.1c-0.6,0.3-1.3,0.4-2,0.4     h-18.5v-4.2h18.5c0.3,0,0.5-0.1,0.7-0.3c0.2-0.2,0.3-0.4,0.3-0.7V251c0-0.3-0.1-0.5-0.3-0.7c-0.2-0.2-0.4-0.3-0.7-0.3h-13.3     c-0.7,0-1.4-0.1-2-0.4c-0.6-0.3-1.2-0.6-1.7-1.1c-0.5-0.5-0.8-1-1.1-1.7c-0.3-0.6-0.4-1.3-0.4-2v-1.6c0-0.7,0.1-1.4,0.4-2     c0.3-0.6,0.6-1.2,1.1-1.6c0.5-0.5,1-0.8,1.7-1.1c0.6-0.3,1.3-0.4,2-0.4h18.5v4.2h-18.5c-0.3,0-0.5,0.1-0.7,0.3     c-0.2,0.2-0.3,0.4-0.3,0.7v1.6c0,0.3,0.1,0.5,0.3,0.7c0.2,0.2,0.4,0.3,0.7,0.3h13.3c0.7,0,1.4,0.1,2,0.4c0.6,0.3,1.2,0.6,1.6,1.1     c0.5,0.5,0.8,1,1.1,1.6c0.3,0.6,0.4,1.3,0.4,2V252.6z"></path>
		</g>
	</g>
</g>
<g id="Calque_2">
</g>
<g id="Calque_3">
</g>
<g id="Calque_4">
</g>
</svg>
